<svg width="40" height="42" viewBox="0 0 40 42" fill="none" xmlns="http://www.w3.org/2000/svg">
<path d="M32.5 4.75C32.5 6.15625 31.7188 7.32812 30.625 8.03125C29.4531 8.73438 27.9688 8.73438 26.875 8.03125C25.7031 7.32812 25 6.15625 25 4.75C25 3.42188 25.7031 2.25 26.875 1.54688C27.9688 0.84375 29.4531 0.84375 30.625 1.54688C31.7188 2.25 32.5 3.42188 32.5 4.75ZM17.2656 14.75L15.4688 16.5469C14.5312 17.5625 12.9688 17.5625 11.9531 16.5469C11.0156 15.6094 11.0156 13.9688 11.9531 13.0312L13.75 11.2344C15.4688 9.51562 17.8125 8.5 20.2344 8.5C21.1719 8.5 22.0312 8.65625 22.8906 8.96875L26.7188 10.1406C29.5312 11 31.875 13.1094 32.9688 15.8438L33.5156 17.0156C33.9062 17.9531 34.7656 18.5 35.7812 18.5H37.5C38.8281 18.5 40 19.6719 40 21C40 22.4062 38.8281 23.5 37.5 23.5H35.7812C32.7344 23.5 30.0781 21.7031 28.9062 18.8906L28.4375 17.9531L26.0938 24.3594L30.4688 27.1719C31.875 28.0312 32.5781 29.75 32.1094 31.3906L29.8438 39.2031C29.4531 40.5312 28.125 41.3125 26.7969 40.9219C25.4688 40.5312 24.6875 39.2031 25.0781 37.875L27.0312 30.9219L20.3125 26.7031C18.3594 25.4531 17.5 23.0312 18.2031 20.8438L20.625 13.5781C20.5469 13.5781 20.3906 13.5 20.2344 13.5C19.1406 13.5 18.0469 13.9688 17.2656 14.75ZM14.6094 28.5L16.0156 25.2969C16.6406 26.7031 17.6562 27.9531 18.9844 28.8125L19.7656 29.2812L18.8281 31.3125C18.2031 32.6406 16.875 33.5 15.3906 33.5H10C8.59375 33.5 7.5 32.4062 7.5 31C7.5 29.6719 8.59375 28.5 10 28.5H14.6094Z" fill="#702386"/>
<path opacity="0.4" d="M12.0312 28.5H10C8.59375 28.5 7.5 29.6719 7.5 31C7.5 32.4062 8.59375 33.5 10 33.5H11.0938C9.92188 38.1094 8.20312 41 6.25 41C2.73438 41 0 32.0938 0 21C0 9.98438 2.73438 1 6.25 1C8.75 1 11.0156 6 11.9531 13.0312C10.9375 13.9688 10.9375 15.6094 11.9531 16.5469C12.0312 16.7031 12.1875 16.7812 12.3438 16.8594C12.4219 18.1875 12.5 19.5938 12.5 21C12.5 23.6562 12.3438 26.2344 12.0312 28.5Z" fill="#702386"/>
</svg>
