<svg width="40" height="40" viewBox="0 0 40 40" fill="none" xmlns="http://www.w3.org/2000/svg">
<path d="M11.25 10H28.75C29.375 10 30 10.625 30 11.25C30 11.9531 29.375 12.5 28.75 12.5H11.25C10.5469 12.5 10 11.9531 10 11.25C10 10.625 10.5469 10 11.25 10ZM11.25 17.5H28.75C29.375 17.5 30 18.125 30 18.75C30 19.4531 29.375 20 28.75 20H11.25C10.5469 20 10 19.4531 10 18.75C10 18.125 10.5469 17.5 11.25 17.5ZM11.25 25H21.25C21.875 25 22.5 25.625 22.5 26.25C22.5 26.9531 21.875 27.5 21.25 27.5H11.25C10.5469 27.5 10 26.9531 10 26.25C10 25.625 10.5469 25 11.25 25Z" fill="#702386"/>
<path opacity="0.4" d="M5 5C5 2.26562 7.1875 0 10 0H30C32.7344 0 35 2.26562 35 5V35C35 37.8125 32.7344 40 30 40H10C7.1875 40 5 37.8125 5 35V5ZM10 11.25C10 11.9531 10.5469 12.5 11.25 12.5H28.75C29.375 12.5 30 11.9531 30 11.25C30 10.625 29.375 10 28.75 10H11.25C10.5469 10 10 10.625 10 11.25ZM11.25 17.5C10.5469 17.5 10 18.125 10 18.75C10 19.4531 10.5469 20 11.25 20H28.75C29.375 20 30 19.4531 30 18.75C30 18.125 29.375 17.5 28.75 17.5H11.25ZM11.25 25C10.5469 25 10 25.625 10 26.25C10 26.9531 10.5469 27.5 11.25 27.5H21.25C21.875 27.5 22.5 26.9531 22.5 26.25C22.5 25.625 21.875 25 21.25 25H11.25Z" fill="#702386"/>
</svg>
