<svg width="40" height="40" viewBox="0 0 40 40" fill="none" xmlns="http://www.w3.org/2000/svg">
<path d="M35 12.5H25C23.5938 12.5 22.5 11.4062 22.5 10V0L35 12.5ZM21.25 18.125V19.5312C21.875 19.6094 22.5 19.7656 23.125 19.9219C23.75 20.0781 24.1406 20.7812 23.9844 21.4062C23.8281 22.1094 23.125 22.5 22.4219 22.3438C21.5625 22.1094 20.7031 21.9531 19.9219 21.875C19.2969 21.875 18.5938 22.0312 18.125 22.3438C17.6562 22.5781 17.5 22.8906 17.5 23.3594C17.5 23.5938 17.5781 23.8281 18.0469 24.1406C18.5938 24.4531 19.2969 24.6875 20.3125 25H20.3906C21.25 25.2344 22.3438 25.625 23.2031 26.0938C24.1406 26.7188 24.9219 27.6562 25 29.1406C25 30.625 24.2188 31.7188 23.2031 32.3438C22.5781 32.7344 21.875 32.9688 21.25 33.0469V34.4531C21.25 35.0781 20.625 35.7031 20 35.7031C19.2969 35.7031 18.75 35.0781 18.75 34.4531V33.0469C17.8125 32.8906 17.0312 32.5781 16.3281 32.3438C16.1719 32.2656 15.9375 32.1875 15.7812 32.1875C15.1562 31.9531 14.8438 31.25 15 30.625C15.2344 29.9219 15.9375 29.6094 16.6406 29.7656C16.7969 29.8438 16.9531 29.9219 17.1875 30C18.2031 30.3125 19.0625 30.625 20 30.7031C20.7031 30.7031 21.4062 30.5469 21.875 30.2344C22.2656 30 22.5 29.6875 22.4219 29.1406C22.4219 28.8281 22.3438 28.5156 21.875 28.2812C21.3281 27.8906 20.5469 27.6562 19.6094 27.3438H19.4531C18.5938 27.1094 17.5781 26.7969 16.7188 26.25C15.7812 25.7031 15 24.7656 15 23.3594C15 21.875 15.7812 20.7812 16.7969 20.1562C17.4219 19.8438 18.0469 19.6094 18.75 19.5312V18.125C18.75 17.5 19.2969 16.875 20 16.875C20.625 16.875 21.25 17.5 21.25 18.125Z" fill="#702386"/>
<path opacity="0.4" d="M5 5C5 2.26562 7.1875 0 10 0H22.5V10C22.5 11.4062 23.5938 12.5 25 12.5H35V35C35 37.8125 32.7344 40 30 40H10C7.1875 40 5 37.8125 5 35V5ZM10 6.25C10 6.95312 10.5469 7.5 11.25 7.5H16.25C16.875 7.5 17.5 6.95312 17.5 6.25C17.5 5.625 16.875 5 16.25 5H11.25C10.5469 5 10 5.625 10 6.25ZM10 11.25C10 11.9531 10.5469 12.5 11.25 12.5H16.25C16.875 12.5 17.5 11.9531 17.5 11.25C17.5 10.625 16.875 10 16.25 10H11.25C10.5469 10 10 10.625 10 11.25ZM20 16.875C19.2969 16.875 18.75 17.5 18.75 18.125V19.5312C18.0469 19.6094 17.4219 19.8438 16.7969 20.1562C15.7812 20.7812 15 21.875 15 23.3594C15 24.7656 15.7812 25.7031 16.7188 26.25C17.5781 26.7969 18.5938 27.1094 19.4531 27.3438H19.6094C20.5469 27.6562 21.3281 27.8906 21.875 28.2812C22.3438 28.5156 22.4219 28.8281 22.4219 29.1406C22.5 29.6875 22.2656 30 21.875 30.2344C21.4062 30.5469 20.7031 30.7031 20 30.7031C19.0625 30.625 18.2031 30.3125 17.1875 30C16.9531 29.9219 16.7969 29.8438 16.6406 29.7656C15.9375 29.6094 15.2344 29.9219 15 30.625C14.8438 31.25 15.1562 31.9531 15.7812 32.1875C15.9375 32.1875 16.1719 32.2656 16.3281 32.3438C17.0312 32.5781 17.8125 32.8906 18.75 33.0469V34.375C18.75 35.0781 19.2969 35.625 20 35.625C20.625 35.625 21.25 35.0781 21.25 34.375V33.0469C21.875 32.9688 22.5781 32.7344 23.2031 32.3438C24.2188 31.7188 25 30.625 25 29.1406C24.9219 27.6562 24.1406 26.7188 23.2031 26.0938C22.3438 25.625 21.25 25.2344 20.3906 25H20.3125C19.2969 24.6875 18.5938 24.4531 18.0469 24.1406C17.5781 23.8281 17.5 23.5938 17.5 23.3594C17.5 22.8906 17.6562 22.5781 18.125 22.3438C18.5938 22.0312 19.2969 21.875 19.9219 21.875C20.7031 21.9531 21.5625 22.1094 22.4219 22.3438C23.125 22.5 23.8281 22.1094 23.9844 21.4062C24.1406 20.7812 23.75 20.0781 23.125 19.9219C22.5 19.7656 21.875 19.6094 21.25 19.5312V18.125C21.25 17.5 20.625 16.875 20 16.875Z" fill="#702386"/>
</svg>
