<svg width="52" height="42" viewBox="0 0 52 42" fill="none" xmlns="http://www.w3.org/2000/svg">
<path d="M40.4531 13.0312C41.3906 12.0156 43.0312 12.0156 43.9688 13.0312L50.2188 19.2812C51.2344 20.2188 51.2344 21.8594 50.2188 22.7969L43.9688 29.0469C43.0312 30.0625 41.3906 30.0625 40.4531 29.0469C39.4375 28.1094 39.4375 26.4688 40.4531 25.5312L42.4062 23.5H31C29.5938 23.5 28.5 22.4062 28.5 21C28.5 19.6719 29.5938 18.5 31 18.5H42.4062L40.4531 16.5469C39.4375 15.6094 39.4375 13.9688 40.4531 13.0312ZM13.5 4.75C13.5 3.42188 14.2031 2.25 15.375 1.54688C16.4688 0.84375 17.9531 0.84375 19.125 1.54688C20.2188 2.25 21 3.42188 21 4.75C21 6.15625 20.2188 7.32812 19.125 8.03125C17.9531 8.73438 16.4688 8.73438 15.375 8.03125C14.2031 7.32812 13.5 6.15625 13.5 4.75ZM10.8438 16.625C10.7656 16.625 10.6875 16.7031 10.6094 16.7031L9.98438 16.9375C8.73438 17.5625 7.71875 18.6562 7.25 19.9844L7.09375 20.5312C6.625 21.8594 5.21875 22.5625 3.89062 22.1719C2.64062 21.7031 1.9375 20.2969 2.32812 18.9688L2.5625 18.3438C3.42188 15.6875 5.375 13.5 7.95312 12.4062L8.57812 12.0938C10.2188 11.3906 11.9375 11 13.7344 11C17.25 11 20.375 13.1094 21.7031 16.3125L22.9531 19.2031L24.5938 20.0625C25.8438 20.6875 26.3125 22.1719 25.6875 23.4219C25.0625 24.6719 23.5781 25.1406 22.3281 24.5156L20.2969 23.5C19.4375 23.1094 18.8125 22.4062 18.5 21.5469L17.7188 19.75L16.2344 24.9062L20.0625 29.125C20.5312 29.5938 20.8438 30.1406 21 30.7656L22.7969 37.9531C23.1094 39.2812 22.25 40.6094 20.9219 40.9219C19.5938 41.3125 18.2656 40.4531 17.875 39.125L16.1562 32.25L10.6875 26.2344C9.51562 24.9844 9.04688 23.1875 9.51562 21.5469L10.8438 16.625ZM6.3125 32.0938L8.26562 27.25C8.42188 27.4844 8.65625 27.7188 8.8125 27.9531L12.0156 31.3906L10.8438 34.2031C10.6875 34.6719 10.375 35.1406 10.0625 35.4531L5.21875 40.2969C4.28125 41.3125 2.64062 41.3125 1.70312 40.2969C0.6875 39.3594 0.6875 37.7188 1.70312 36.7812L6.3125 32.0938Z" fill="#702386"/>
</svg>
