<svg width="46" height="40" viewBox="0 0 46 40" fill="none" xmlns="http://www.w3.org/2000/svg">
<path d="M0.5 8.82812C0.5 6.95312 2.45312 5.70312 4.25 6.25C10.5 7.89062 16.75 6.32812 23 4.76562C29.7969 3.04688 36.5938 1.25 43.3906 3.82812C44.6406 4.29688 45.5 5.625 45.5 7.03125V31.25C45.5 33.125 43.4688 34.375 41.6719 33.8281C35.4219 32.1094 29.1719 33.75 23 35.3125C16.2031 37.0312 9.40625 38.8281 2.60938 36.25C1.28125 35.7812 0.5 34.4531 0.5 33.0469V8.82812ZM40.5 12.5C37.8438 12.5 35.6562 10.4688 35.5 7.89062C32.375 7.96875 28.9375 8.67188 25.0312 9.6875C24.6406 9.76562 24.25 9.84375 23.8594 9.92188C19.875 10.9375 15.2656 12.1094 10.4219 12.1875C9.95312 14.5312 7.92188 16.25 5.5 16.25V27.5C8.07812 27.5 10.2656 29.6094 10.4219 32.1875C13.5469 32.1094 16.9844 31.4062 20.8906 30.3906C21.2812 30.3125 21.6719 30.2344 22.0625 30.0781C26.0469 29.1406 30.6562 27.9688 35.5781 27.8906C35.9688 25.5469 38 23.75 40.5 23.75V12.5Z" fill="white"/>
<path opacity="0.4" d="M40.5 12.5V23.75C38 23.75 35.9688 25.5469 35.5781 27.8906C30.6562 27.9688 26.0469 29.1406 22.0625 30.0781C21.6719 30.2344 21.2812 30.3125 20.9688 30.3906C16.9844 31.4062 13.5469 32.1094 10.4219 32.1875C10.2656 29.6094 8.07812 27.5 5.5 27.5V16.25C7.92188 16.25 9.95312 14.5312 10.3438 12.1875C15.2656 12.1094 19.875 10.9375 23.8594 10C24.25 9.84375 24.6406 9.76562 24.9531 9.6875C28.9375 8.67188 32.375 7.96875 35.5 7.89062C35.6562 10.4688 37.8438 12.5 40.5 12.5ZM23 27.5C26.4375 27.5 29.25 24.1406 29.25 20C29.25 15.8594 26.4375 12.5 23 12.5C19.4844 12.5 16.75 15.8594 16.75 20C16.75 24.1406 19.4844 27.5 23 27.5Z" fill="white"/>
</svg>
