<svg width="40" height="40" viewBox="0 0 40 40" fill="none" xmlns="http://www.w3.org/2000/svg">
<path d="M12.4219 12.4219C13.125 11.7188 14.2969 11.7188 15 12.4219L21.25 18.6719C22.0312 19.4531 22.0312 20.625 21.25 21.3281C20.5469 22.1094 19.375 22.1094 18.6719 21.3281L12.4219 15.0781C11.6406 14.375 11.6406 13.2031 12.4219 12.4219Z" fill="#702386"/>
<path opacity="0.4" d="M17.5 2.5C17.5 1.17188 18.5938 0 20 0C31.0156 0 40 8.98438 40 20C40 31.0938 31.0156 40 20 40C8.90625 40 0 31.0938 0 20C0 14.4531 2.26562 9.375 5.9375 5.78125C6.95312 4.76562 8.51562 4.76562 9.53125 5.78125C10.4688 6.79688 10.4688 8.35938 9.45312 9.29688C6.71875 12.0312 5 15.8594 5 20C5 28.2812 11.7188 35 20 35C28.2812 35 35 28.2812 35 20C35 12.5781 29.5312 6.40625 22.5 5.23438V7.5C22.5 8.90625 21.3281 10 20 10C18.5938 10 17.5 8.90625 17.5 7.5V2.5Z" fill="#702386"/>
</svg>
