<svg width="40" height="40" viewBox="0 0 40 40" fill="none" xmlns="http://www.w3.org/2000/svg">
<path d="M18.8281 0.078125L21.0156 4.14062C21.4844 5.07812 21.4062 6.17188 20.7031 6.95312L19.4531 8.4375C18.6719 9.375 18.6719 10.7031 19.4531 11.6406L20.4688 12.9688C20.9375 13.4375 20.9375 14.1406 20.625 14.6875C20.2344 15.2344 19.5312 15.5469 18.9062 15.3125L17.0312 14.6875C16.4844 14.5312 15.9375 14.5312 15.3906 14.8438L14.9219 15.0781C14.2188 15.3906 13.9062 16.25 14.1406 16.9531C14.2969 17.3438 14.5312 17.6562 14.8438 17.8125L17.5781 19.375C18.2812 19.8438 19.1406 20 20.0781 20H23.4375C24.375 20 25.3906 20.4688 26.0938 21.1719L26.3281 21.4062C27.0312 22.1094 27.5 23.125 27.5 24.0625V24.7656C27.5 26.0938 26.7188 27.3438 25.5469 27.9688L24.9219 28.3594C23.75 29.0625 22.8906 30.1562 22.5781 31.4844L22.3438 32.3438C22.0312 33.5938 21.0938 34.6094 19.7656 35C18.5938 35.3125 17.5 34.4531 17.5 33.2031V30.1562C17.5 29.2969 16.9531 28.5156 16.25 28.125C15.4688 27.8125 15 27.0312 15 26.1719V23.0469C15 21.6406 14.0625 20.3906 12.7344 20L7.96875 18.6719C6.875 18.3594 5.85938 17.5781 5.23438 16.6406L1.79688 11.5625C4.84375 5.07812 11.3281 0.46875 18.8281 0.078125ZM37.5781 10.5469C39.0625 13.3594 39.9219 16.5625 39.9219 20C39.9219 21.25 39.8438 22.5 39.6094 23.6719L33.6719 21.6406C32.8906 21.4062 32.3438 20.8594 32.0312 20.0781L30.7031 15.9375C30.3125 14.7656 30.8594 13.3594 32.1094 12.8906L37.5781 10.5469Z" fill="#702386"/>
<path opacity="0.4" d="M1.79688 11.5625L5.23438 16.6406C5.85938 17.5781 6.875 18.3594 7.96875 18.6719L12.7344 20C14.0625 20.3906 15 21.6406 15 23.0469V26.1719C15 27.0312 15.4688 27.8125 16.25 28.125C16.9531 28.5156 17.5 29.2969 17.5 30.1562V33.2031C17.5 34.4531 18.5938 35.3125 19.7656 35C21.0938 34.6094 22.0312 33.5938 22.3438 32.3438L22.5781 31.4844C22.8906 30.1562 23.75 29.0625 24.9219 28.3594L25.5469 27.9688C26.7188 27.3438 27.5 26.0938 27.5 24.7656V24.0625C27.5 23.125 27.0312 22.1094 26.3281 21.4062L26.0938 21.1719C25.3906 20.4688 24.375 20 23.4375 20H20.0781C19.1406 20 18.2812 19.8438 17.5781 19.375L14.8438 17.8125C14.5312 17.6562 14.2969 17.3438 14.1406 16.9531C13.9062 16.25 14.2188 15.3906 14.9219 15.0781L15.3906 14.8438C15.9375 14.5312 16.4844 14.5312 17.0312 14.6875L18.9062 15.3125C19.5312 15.5469 20.2344 15.2344 20.625 14.6875C20.9375 14.1406 20.9375 13.4375 20.4688 12.9688L19.4531 11.6406C18.6719 10.7031 18.6719 9.375 19.4531 8.4375L20.7031 6.95312C21.4062 6.17188 21.4844 5.07812 21.0156 4.14062L18.8281 0.078125C19.2188 0.078125 19.6094 0 20 0C27.5781 0 34.2188 4.29688 37.5781 10.5469L32.1094 12.8906C30.8594 13.3594 30.3125 14.7656 30.7031 15.9375L32.0312 20.0781C32.3438 20.8594 32.8906 21.4062 33.6719 21.6406L39.6094 23.6719C37.8906 32.9688 29.7656 40 20 40C8.90625 40 0 31.0938 0 20C0 17.0312 0.625 14.1406 1.79688 11.5625Z" fill="#702386"/>
</svg>
