<svg width="50" height="40" viewBox="0 0 50 40" fill="none" xmlns="http://www.w3.org/2000/svg">
<path d="M5 17.5C5 14.8438 6.40625 12.4219 8.75 11.0156C11.0156 9.6875 13.9062 9.6875 16.25 11.0156C18.5156 12.4219 20 14.8438 20 17.5C20 20.2344 18.5156 22.6562 16.25 24.0625C13.9062 25.3906 11.0156 25.3906 8.75 24.0625C6.40625 22.6562 5 20.2344 5 17.5ZM0 37.9688C0 32.1875 4.60938 27.5 10.3906 27.5H14.5312C20.3125 27.5 25 32.1875 25 37.9688C25 39.0625 24.0625 40 22.8906 40H2.03125C0.859375 40 0 39.1406 0 37.9688ZM32.5 22.5H37.5C38.8281 22.5 40 23.6719 40 25V27.5H30V25C30 23.6719 31.0938 22.5 32.5 22.5Z" fill="#702386"/>
<path opacity="0.4" d="M17.5 0H45C47.7344 0 50 2.26562 50 5V27.5C50 30.3125 47.7344 32.5 45 32.5H26.25C25.3906 30.5469 23.9062 28.8281 22.1875 27.5H45V5H17.5V8.90625C16.0156 8.04688 14.2969 7.5 12.5 7.5V5C12.5 2.26562 14.6875 0 17.5 0Z" fill="#702386"/>
</svg>
