<svg width="40" height="40" viewBox="0 0 40 40" fill="none" xmlns="http://www.w3.org/2000/svg">
<path d="M20 25C18.2031 25 16.5625 24.0625 15.625 22.5C14.7656 21.0156 14.7656 19.0625 15.625 17.5C16.5625 16.0156 18.2031 15 20 15C21.7188 15 23.3594 16.0156 24.2969 17.5C25.1562 19.0625 25.1562 21.0156 24.2969 22.5C23.3594 24.0625 21.7188 25 20 25ZM15.3906 27.5H24.5312C26.875 27.5 28.75 29.375 28.75 31.7188C28.75 32.1875 28.3594 32.5 27.8906 32.5H12.0312C11.5625 32.5 11.25 32.1875 11.25 31.7188C11.25 29.375 13.0469 27.5 15.3906 27.5Z" fill="#702386"/>
<path opacity="0.4" d="M40 32.5C40 35.3125 37.7344 37.5 35 37.5H5C2.1875 37.5 0 35.3125 0 32.5V7.5C0 4.76562 2.1875 2.5 5 2.5H15C16.5625 2.5 18.0469 3.28125 18.9844 4.53125L20.4688 6.5625C20.9375 7.1875 21.6406 7.5 22.5 7.5H35C37.7344 7.5 40 9.76562 40 12.5V32.5ZM25 20C25 18.2812 23.9844 16.6406 22.5 15.7031C20.9375 14.8438 18.9844 14.8438 17.5 15.7031C15.9375 16.6406 15 18.2812 15 20C15 21.7969 15.9375 23.4375 17.5 24.375C18.9844 25.2344 20.9375 25.2344 22.5 24.375C23.9844 23.4375 25 21.7969 25 20ZM11.25 31.7188C11.25 32.1875 11.5625 32.5 12.0312 32.5H27.8906C28.3594 32.5 28.75 32.1875 28.75 31.7188C28.75 29.375 26.875 27.5 24.5312 27.5H15.3906C13.0469 27.5 11.25 29.375 11.25 31.7188Z" fill="#702386"/>
</svg>
