<svg width="46" height="40" viewBox="0 0 46 40" fill="none" xmlns="http://www.w3.org/2000/svg">
<path d="M34.4062 21.0938L17.9219 15.0781L18.1562 14.375C19.5625 10.5469 21.75 6.95312 24.4844 3.82812L24.7969 3.51562C26.6719 1.48438 29.4844 0.703125 32.0625 1.64062C32.1406 1.64062 32.2188 1.71875 32.2969 1.71875C34.7969 2.73438 36.4375 5.07812 36.5938 7.8125V8.28125C36.6719 12.3438 36.0469 16.4844 34.6406 20.3906L34.4062 21.0938ZM22.9219 1.875L22.6094 2.1875C19.6406 5.54688 17.375 9.375 15.8125 13.5938L15.5781 14.2969L10.0312 12.2656C8.625 11.7188 8 10.0781 8.85938 8.82812C12.4531 3.75 18.3125 0.625 24.5625 0.390625C23.9375 0.78125 23.4688 1.32812 22.9219 1.875ZM39.0938 7.73438C39.0156 7.03125 38.9375 6.40625 38.7812 5.78125C43.2344 9.92188 45.5781 15.9375 45.1094 22.0312C44.9531 23.5156 43.3906 24.375 41.9844 23.9062L36.75 21.9531L36.9844 21.25C38.4688 17.0312 39.25 12.6562 39.0938 8.20312V7.73438ZM3 35H43C44.3281 35 45.5 36.1719 45.5 37.5C45.5 38.9062 44.3281 40 43 40H3C1.59375 40 0.5 38.9062 0.5 37.5C0.5 36.1719 1.59375 35 3 35Z" fill="#702386"/>
<path opacity="0.4" d="M23.7031 17.1875L28.3906 18.9062L22.5312 35H17.2188L23.7031 17.1875Z" fill="#702386"/>
</svg>
