<svg width="51" height="40" viewBox="0 0 51 40" fill="none" xmlns="http://www.w3.org/2000/svg">
<path d="M38.75 40C34.6875 40 31.0156 37.8906 28.9844 34.375C26.9531 30.9375 26.9531 26.6406 28.9844 23.125C31.0156 19.6875 34.6875 17.5 38.75 17.5C42.7344 17.5 46.4062 19.6875 48.4375 23.125C50.4688 26.6406 50.4688 30.9375 48.4375 34.375C46.4062 37.8906 42.7344 40 38.75 40ZM40.2344 23.5156C39.7656 23.0469 38.9062 23.0469 38.4375 23.5156C37.9688 23.9844 37.9688 24.8438 38.4375 25.3125L40.7031 27.5H33.75C33.0469 27.5 32.5 28.125 32.5 28.75C32.5 29.4531 33.0469 30 33.75 30H40.7031L38.4375 32.2656C37.9688 32.7344 37.9688 33.5938 38.4375 34.0625C38.9062 34.5312 39.7656 34.5312 40.2344 34.0625L44.6094 29.6875C45.0781 29.2188 45.0781 28.3594 44.6094 27.8906L40.2344 23.5156Z" fill="#702386"/>
<path opacity="0.4" d="M0 3.75C0 1.71875 1.64062 0 3.75 0H26.25C28.2812 0 30 1.71875 30 3.75V18.2031C26.875 20.7031 25 24.5312 25 28.75C25 32.6562 26.5625 36.1719 29.1406 38.6719C28.4375 39.5312 27.4219 40 26.25 40H18.75V33.75C18.75 31.7188 17.0312 30 15 30C12.8906 30 11.25 31.7188 11.25 33.75V40H3.75C1.64062 40 0 38.3594 0 36.25V3.75ZM6.25 17.5C5.54688 17.5 5 18.125 5 18.75V21.25C5 21.9531 5.54688 22.5 6.25 22.5H8.75C9.375 22.5 10 21.9531 10 21.25V18.75C10 18.125 9.375 17.5 8.75 17.5H6.25ZM12.5 18.75V21.25C12.5 21.9531 13.0469 22.5 13.75 22.5H16.25C16.875 22.5 17.5 21.9531 17.5 21.25V18.75C17.5 18.125 16.875 17.5 16.25 17.5H13.75C13.0469 17.5 12.5 18.125 12.5 18.75ZM21.25 17.5C20.5469 17.5 20 18.125 20 18.75V21.25C20 21.9531 20.5469 22.5 21.25 22.5H23.75C24.375 22.5 25 21.9531 25 21.25V18.75C25 18.125 24.375 17.5 23.75 17.5H21.25ZM5 8.75V11.25C5 11.9531 5.54688 12.5 6.25 12.5H8.75C9.375 12.5 10 11.9531 10 11.25V8.75C10 8.125 9.375 7.5 8.75 7.5H6.25C5.54688 7.5 5 8.125 5 8.75ZM13.75 7.5C13.0469 7.5 12.5 8.125 12.5 8.75V11.25C12.5 11.9531 13.0469 12.5 13.75 12.5H16.25C16.875 12.5 17.5 11.9531 17.5 11.25V8.75C17.5 8.125 16.875 7.5 16.25 7.5H13.75ZM20 8.75V11.25C20 11.9531 20.5469 12.5 21.25 12.5H23.75C24.375 12.5 25 11.9531 25 11.25V8.75C25 8.125 24.375 7.5 23.75 7.5H21.25C20.5469 7.5 20 8.125 20 8.75Z" fill="#702386"/>
</svg>
