<svg width="22" height="18" viewBox="0 0 22 18" fill="none" xmlns="http://www.w3.org/2000/svg">
<path d="M2 9.09375L8.1875 14.9531C8.28125 15 8.32812 15 8.42188 15C8.60938 15 8.75 14.8594 8.75 14.7188V12C8.75 11.625 9.07812 11.25 9.5 11.25H15.125C15.3125 11.25 15.5 11.1094 15.5 10.875V7.125C15.5 6.9375 15.3125 6.75 15.125 6.75H9.5C9.07812 6.75 8.75 6.42188 8.75 6V3.32812C8.75 3.14062 8.60938 3 8.42188 3C8.32812 3 8.23438 3.04688 8.1875 3.09375L2 8.95312V9C2 9.04688 2 9.09375 2 9.09375ZM0.5 9C0.5 8.57812 0.640625 8.15625 0.96875 7.82812L7.15625 2.01562C7.53125 1.6875 7.95312 1.5 8.42188 1.5C9.40625 1.5 10.25 2.34375 10.25 3.32812V5.25H15.125C16.1562 5.25 17 6.09375 17 7.125V10.875C17 11.9531 16.1562 12.75 15.125 12.75H10.25V14.7188C10.25 15.7031 9.40625 16.5 8.42188 16.5C7.95312 16.5 7.53125 16.3594 7.15625 16.0312L0.96875 10.2188C0.640625 9.89062 0.5 9.46875 0.5 9ZM21.5 17.25C21.5 17.6719 21.125 18 20.75 18C20.3281 18 20 17.6719 20 17.25V0.75C20 0.375 20.3281 0 20.75 0C21.125 0 21.5 0.375 21.5 0.75V17.25Z" fill="white"/>
</svg>
