<svg width="23" height="23" viewBox="0 0 23 23" fill="none" xmlns="http://www.w3.org/2000/svg">
<path d="M5 9.5C3.35938 9.5 1.90625 8.65625 1.0625 7.25C0.265625 5.89062 0.265625 4.15625 1.0625 2.75C1.90625 1.39062 3.35938 0.5 5 0.5C6.59375 0.5 8.04688 1.39062 8.89062 2.75C9.6875 4.15625 9.6875 5.89062 8.89062 7.25C8.04688 8.65625 6.59375 9.5 5 9.5ZM5 21.5C3.35938 21.5 1.90625 20.6562 1.0625 19.25C0.265625 17.8906 0.265625 16.1562 1.0625 14.75C1.90625 13.3906 3.35938 12.5 5 12.5C6.59375 12.5 8.04688 13.3906 8.89062 14.75C9.6875 16.1562 9.6875 17.8906 8.89062 19.25C8.04688 20.6562 6.59375 21.5 5 21.5ZM21.5 5C21.5 6.64062 20.6094 8.09375 19.25 8.9375C17.8438 9.73438 16.1094 9.73438 14.75 8.9375C13.3438 8.09375 12.5 6.64062 12.5 5C12.5 3.40625 13.3438 1.95312 14.75 1.10938C16.1094 0.3125 17.8438 0.3125 19.25 1.10938C20.6094 1.95312 21.5 3.40625 21.5 5ZM17 11.75C17.6094 11.75 18.125 12.2656 18.125 12.875V15.875H21.125C21.7344 15.875 22.25 16.3906 22.25 17C22.25 17.6562 21.7344 18.125 21.125 18.125H18.125V21.125C18.125 21.7812 17.6094 22.25 17 22.25C16.3438 22.25 15.875 21.7812 15.875 21.125V18.125H12.875C12.2188 18.125 11.75 17.6562 11.75 17C11.75 16.3906 12.2188 15.875 12.875 15.875H15.875V12.875C15.875 12.2656 16.3438 11.75 17 11.75Z" fill="white"/>
</svg>
