<svg width="24" height="24" viewBox="0 0 24 24" fill="none" xmlns="http://www.w3.org/2000/svg">
<path d="M7.92188 0.84375C8.57812 0.328125 9.51562 0 10.5 0C11.4375 0 12.375 0.328125 13.0312 0.84375C13.7344 1.35938 14.25 2.10938 14.25 3C14.25 3.9375 13.7344 4.6875 13.0312 5.20312C12.7969 5.39062 12.75 5.57812 12.75 5.67188C12.75 5.85938 12.8906 6 13.0781 6H15.75C16.9688 6 18 7.03125 18 8.25V10.9219C18 11.1094 18.1406 11.25 18.3281 11.25C18.4219 11.25 18.6094 11.2031 18.7969 10.9688C19.3125 10.2656 20.0625 9.75 21 9.75C21.8906 9.75 22.6406 10.2656 23.1562 10.9688C23.6719 11.625 24 12.5625 24 13.5C24 14.4844 23.6719 15.4219 23.1562 16.0781C22.6406 16.7812 21.8906 17.25 21 17.25C20.0625 17.25 19.3125 16.7812 18.7969 16.0781C18.6094 15.8438 18.4219 15.75 18.3281 15.75C18.1406 15.75 18 15.9375 18 16.125V21.75C18 23.0156 16.9688 24 15.75 24H13.0781C12.0469 24 11.25 23.2031 11.25 22.1719C11.25 21.4219 11.6719 20.8594 12.1406 20.5312C12.5625 20.2031 12.75 19.875 12.75 19.5C12.75 19.1719 12.5625 18.8438 12.1406 18.5156C11.7656 18.2344 11.1562 18 10.5 18C9.79688 18 9.1875 18.2344 8.8125 18.5156C8.39062 18.8438 8.25 19.1719 8.25 19.5C8.25 19.875 8.39062 20.2031 8.8125 20.5312C9.28125 20.8594 9.75 21.4219 9.75 22.1719C9.75 23.2031 8.90625 24 7.875 24H2.25C0.984375 24 0 23.0156 0 21.75V16.125C0 15.0938 0.796875 14.25 1.82812 14.25C2.57812 14.25 3.14062 14.7188 3.46875 15.1875C3.79688 15.6094 4.125 15.75 4.5 15.75C4.82812 15.75 5.15625 15.6094 5.48438 15.1875C5.76562 14.8125 6 14.2031 6 13.5C6 12.8438 5.76562 12.2344 5.48438 11.8594C5.15625 11.4375 4.82812 11.25 4.5 11.25C4.125 11.25 3.79688 11.4375 3.46875 11.8594C3.14062 12.3281 2.57812 12.75 1.82812 12.75C0.796875 12.75 0 11.9531 0 10.9219V8.25C0 7.03125 0.984375 6 2.25 6H7.875C8.0625 6 8.25 5.85938 8.25 5.67188C8.25 5.57812 8.15625 5.39062 7.92188 5.20312C7.21875 4.6875 6.75 3.9375 6.75 3C6.75 2.10938 7.21875 1.35938 7.92188 0.84375ZM8.8125 2.01562C8.39062 2.34375 8.25 2.67188 8.25 3C8.25 3.375 8.39062 3.70312 8.8125 4.03125C9.28125 4.35938 9.75 4.92188 9.75 5.67188C9.75 6.70312 8.90625 7.5 7.875 7.5H2.25C1.82812 7.5 1.5 7.875 1.5 8.25V10.9219C1.5 11.1094 1.64062 11.25 1.82812 11.25C1.92188 11.25 2.10938 11.2031 2.29688 10.9688C2.8125 10.2656 3.5625 9.75 4.5 9.75C5.39062 9.75 6.14062 10.2656 6.65625 10.9688C7.17188 11.625 7.5 12.5625 7.5 13.5C7.5 14.4844 7.17188 15.4219 6.65625 16.0781C6.14062 16.7812 5.39062 17.25 4.5 17.25C3.5625 17.25 2.8125 16.7812 2.29688 16.0781C2.10938 15.8438 1.92188 15.75 1.82812 15.75C1.64062 15.75 1.5 15.9375 1.5 16.125V21.75C1.5 22.1719 1.82812 22.5 2.25 22.5H7.875C8.0625 22.5 8.25 22.3594 8.25 22.1719C8.25 22.0781 8.15625 21.8906 7.92188 21.7031C7.21875 21.1875 6.75 20.4375 6.75 19.5C6.75 18.6094 7.21875 17.8594 7.92188 17.3438C8.57812 16.8281 9.51562 16.5 10.5 16.5C11.4375 16.5 12.375 16.8281 13.0312 17.3438C13.7344 17.8594 14.25 18.6094 14.25 19.5C14.25 20.4375 13.7344 21.1875 13.0312 21.7031C12.7969 21.8906 12.75 22.0781 12.75 22.1719C12.75 22.3594 12.8906 22.5 13.0781 22.5H15.75C16.125 22.5 16.5 22.1719 16.5 21.75V16.125C16.5 15.0938 17.2969 14.25 18.3281 14.25C19.0781 14.25 19.6406 14.7188 19.9688 15.1875C20.2969 15.6094 20.625 15.75 21 15.75C21.3281 15.75 21.6562 15.6094 21.9844 15.1875C22.2656 14.8125 22.5 14.2031 22.5 13.5C22.5 12.8438 22.2656 12.2344 21.9844 11.8594C21.6562 11.4375 21.3281 11.25 21 11.25C20.625 11.25 20.2969 11.4375 19.9688 11.8594C19.6406 12.3281 19.0781 12.75 18.3281 12.75C17.2969 12.75 16.5 11.9531 16.5 10.9219V8.25C16.5 7.875 16.125 7.5 15.75 7.5H13.0781C12.0469 7.5 11.25 6.70312 11.25 5.67188C11.25 4.92188 11.6719 4.35938 12.1406 4.03125C12.5625 3.70312 12.75 3.375 12.75 3C12.75 2.67188 12.5625 2.34375 12.1406 2.01562C11.7656 1.73438 11.1562 1.5 10.5 1.5C9.79688 1.5 9.1875 1.73438 8.8125 2.01562Z" fill="white"/>
</svg>
