<svg width="20" height="20" viewBox="0 0 20 20" fill="none" xmlns="http://www.w3.org/2000/svg">
<path d="M14 17C14.5312 17 15 16.5625 15 16V8H11.5C10.6562 8 10 7.34375 10 6.5V3H6C5.4375 3 5 3.46875 5 4V16C5 16.5625 5.4375 17 6 17H14ZM11.5 7H14.9688C14.9375 6.9375 14.9062 6.84375 14.8438 6.78125L11.2188 3.15625C11.1562 3.09375 11.0625 3.0625 11 3.03125V6.5C11 6.78125 11.2188 7 11.5 7ZM6 2H10.875C11.25 2 11.6562 2.1875 11.9375 2.46875L15.5312 6.0625C15.8125 6.34375 16 6.75 16 7.125V16C16 17.125 15.0938 18 14 18H6C4.875 18 4 17.125 4 16V4C4 2.90625 4.875 2 6 2ZM10.5 10.7188V14.5C10.5 14.7812 10.25 15 10 15C9.71875 15 9.5 14.7812 9.5 14.5V10.7188L7.84375 12.375C7.65625 12.5625 7.3125 12.5625 7.125 12.375C6.9375 12.1875 6.9375 11.8438 7.125 11.6562L9.625 9.15625C9.8125 8.96875 10.1562 8.96875 10.3438 9.15625L12.8438 11.6562C13.0312 11.8438 13.0312 12.1875 12.8438 12.375C12.6562 12.5625 12.3125 12.5625 12.125 12.375L10.5 10.7188Z" fill="#702386"/>
</svg>
