<svg width="80" height="80" viewBox="0 0 80 80" fill="none" xmlns="http://www.w3.org/2000/svg">
<path d="M30 70C30 72.8125 27.6562 75 25 75H5C2.1875 75 0 72.8125 0 70V60.625C0 55.3125 1.40625 50.1562 4.0625 45.625C6.25 42.0312 7.65625 37.8125 8.125 33.5938L9.53125 19.5312C9.6875 17.0312 11.875 15 14.5312 15H30H35V40H30V70ZM50 70V40H45V15H50H65.4688C67.9688 15 70.1562 17.0312 70.3125 19.5312L71.7188 33.5938C72.1875 37.8125 73.5938 42.0312 75.7812 45.625C78.4375 50.1562 80 55.3125 80 60.625V70C80 72.8125 77.6562 75 75 75H55C52.1875 75 50 72.8125 50 70Z" fill="#702386"/>
<path opacity="0.4" d="M15 10C15 7.34375 17.1875 5 20 5H25C27.6562 5 30 7.34375 30 10V15H15V10ZM50 10C50 7.34375 52.1875 5 55 5H60C62.6562 5 65 7.34375 65 10V15H50V10ZM45 15V40H35V15H45Z" fill="#702386"/>
</svg>
