<svg width="100" height="81" viewBox="0 0 100 81" fill="none" xmlns="http://www.w3.org/2000/svg">
<path d="M10.7812 1.625L18.2812 6.625C20 7.875 20.4688 10.2188 19.375 11.9375C18.125 13.6562 15.7812 14.125 14.0625 12.875L6.5625 7.875C4.84375 6.78125 4.375 4.4375 5.625 2.71875C6.71875 1 9.0625 0.53125 10.7812 1.625ZM93.2812 7.875L85.7812 12.875C84.0625 14.125 81.7188 13.6562 80.625 11.9375C79.375 10.2188 79.8438 7.875 81.5625 6.625L89.0625 1.625C90.7812 0.53125 93.125 1 94.375 2.71875C95.4688 4.4375 95 6.78125 93.2812 7.875ZM3.75 26H13.75C15.7812 26 17.5 27.7188 17.5 29.75C17.5 31.9375 15.7812 33.5 13.75 33.5H3.75C1.5625 33.5 0 31.9375 0 29.75C0 27.7188 1.5625 26 3.75 26ZM86.25 26H96.25C98.2812 26 100 27.7188 100 29.75C100 31.9375 98.2812 33.5 96.25 33.5H86.25C84.0625 33.5 82.5 31.9375 82.5 29.75C82.5 27.7188 84.0625 26 86.25 26ZM18.2812 52.875L10.7812 57.875C9.0625 59.125 6.71875 58.6562 5.625 56.9375C4.375 55.2188 4.84375 52.875 6.5625 51.625L14.0625 46.625C15.7812 45.5312 18.125 46 19.375 47.7188C20.4688 49.4375 20 51.7812 18.2812 52.875ZM85.7812 46.7812L93.2812 51.7812C95 52.875 95.4688 55.2188 94.375 56.9375C93.125 58.6562 90.7812 59.125 89.0625 58.0312L81.5625 53.0312C79.8438 51.7812 79.375 49.4375 80.625 47.7188C81.7188 46 84.0625 45.5312 85.7812 46.7812ZM62.5 68.5C62.5 75.5312 56.875 81 50 81C42.9688 81 37.5 75.5312 37.5 68.5V61H62.5V68.5Z" fill="#702386"/>
<path opacity="0.4" d="M70.1562 47.5625C67.0312 51.7812 63.9062 56.1562 62.5 61H37.5C35.9375 56.1562 32.8125 51.7812 29.6875 47.5625C28.9062 46.4688 28.125 45.375 27.3438 44.2812C24.2188 39.75 22.5 34.4375 22.5 28.5C22.5 13.3438 34.6875 1 50 1C65.1562 1 77.5 13.3438 77.5 28.5C77.5 34.4375 75.625 39.75 72.5 44.2812C71.7188 45.375 70.9375 46.4688 70.1562 47.5625ZM37.5 28.5C37.5 21.625 42.9688 16 50 16C51.25 16 52.5 14.9062 52.5 13.5C52.5 12.25 51.25 11 50 11C40.3125 11 32.5 18.9688 32.5 28.5C32.5 29.9062 33.5938 31 35 31C36.25 31 37.5 29.9062 37.5 28.5Z" fill="#702386"/>
</svg>
