<svg width="80" height="80" viewBox="0 0 80 80" fill="none" xmlns="http://www.w3.org/2000/svg">
<path d="M20 10H60C65.4688 10 70 14.5312 70 20V60C70 65.625 65.4688 70 60 70H20C14.375 70 10 65.625 10 60V20C10 14.5312 14.375 10 20 10ZM34.6875 29.0625C34.375 28.125 33.4375 27.5 32.5 27.5C31.4062 27.5 30.4688 28.125 30.1562 29.0625L23.5938 44.0625L21.4062 49.0625C20.7812 50.3125 21.4062 51.7188 22.6562 52.3438C23.9062 52.9688 25.4688 52.3438 25.9375 51.0938L27.5 47.5H37.3438L38.9062 51.0938C39.5312 52.3438 40.9375 52.9688 42.1875 52.3438C43.4375 51.875 44.0625 50.3125 43.4375 49.0625L41.25 44.0625L34.6875 29.0625ZM32.5 36.25L35.1562 42.5H29.6875L32.5 36.25ZM55 30C55 28.75 53.75 27.5 52.5 27.5C51.0938 27.5 50 28.75 50 30V50C50 51.4062 51.0938 52.5 52.5 52.5C53.75 52.5 55 51.4062 55 50V30Z" fill="white"/>
<path opacity="0.4" d="M27.5 3.75V10H20V3.75C20 1.71875 21.5625 0 23.75 0C25.7812 0 27.5 1.71875 27.5 3.75ZM43.75 10H36.25V3.75C36.25 1.71875 37.8125 0 40 0C42.0312 0 43.75 1.71875 43.75 3.75V10ZM60 10H52.5V3.75C52.5 1.71875 54.0625 0 56.25 0C58.2812 0 60 1.71875 60 3.75V10ZM70 27.5V20H76.25C78.2812 20 80 21.7188 80 23.75C80 25.9375 78.2812 27.5 76.25 27.5H70ZM70 43.75V36.25H76.25C78.2812 36.25 80 37.9688 80 40C80 42.1875 78.2812 43.75 76.25 43.75H70ZM70 60V52.5H76.25C78.2812 52.5 80 54.2188 80 56.25C80 58.4375 78.2812 60 76.25 60H70ZM52.5 70H60V76.25C60 78.4375 58.2812 80 56.25 80C54.0625 80 52.5 78.4375 52.5 76.25V70ZM36.25 70H43.75V76.25C43.75 78.4375 42.0312 80 40 80C37.8125 80 36.25 78.4375 36.25 76.25V70ZM20 70H27.5V76.25C27.5 78.4375 25.7812 80 23.75 80C21.5625 80 20 78.4375 20 76.25V70ZM10 52.5V60H3.75C1.5625 60 0 58.4375 0 56.25C0 54.2188 1.5625 52.5 3.75 52.5H10ZM10 36.25V43.75H3.75C1.5625 43.75 0 42.1875 0 40C0 37.9688 1.5625 36.25 3.75 36.25H10ZM10 20V27.5H3.75C1.5625 27.5 0 25.9375 0 23.75C0 21.7188 1.5625 20 3.75 20H10Z" fill="white"/>
</svg>
