<svg width="100" height="81" viewBox="0 0 100 81" fill="none" xmlns="http://www.w3.org/2000/svg">
<path d="M64.375 28.2812C65.4688 26.25 67.6562 25 70 25C72.1875 25 74.375 26.25 75.4688 28.2812L99.0625 69.6875C99.6875 70.7812 100 72.0312 100 73.125C100 77.0312 96.875 80.1562 92.9688 80.1562H46.875C42.9688 80.1562 40 77.0312 40 73.125C40 72.0312 40.3125 70.7812 40.7812 69.6875L64.375 28.2812ZM70 40C68.5938 40 67.5 41.25 67.5 42.5V56.25C67.5 57.6562 68.5938 58.75 70 58.75C71.25 58.75 72.5 57.6562 72.5 56.25V42.5C72.5 41.25 71.25 40 70 40ZM66.25 67.5C66.25 69.6875 67.8125 71.25 70 71.25C72.0312 71.25 73.75 69.6875 73.75 67.5C73.75 65.4688 72.0312 63.75 70 63.75C67.8125 63.75 66.25 65.4688 66.25 67.5Z" fill="#702386"/>
<path opacity="0.4" d="M0 15C0 9.53125 4.375 5 10 5H60C65.4688 5 70 9.53125 70 15V20C65.7812 20 62.0312 22.3438 60 25.9375L36.4062 67.1875C35.4688 69.0625 35 71.0938 35 73.125C35 73.75 35 74.375 35.1562 75H10C4.375 75 0 70.625 0 65V15ZM13.75 15C11.5625 15 10 16.7188 10 18.75V41.25C10 43.4375 11.5625 45 13.75 45C15.7812 45 17.5 43.4375 17.5 41.25V18.75C17.5 16.7188 15.7812 15 13.75 15ZM28.75 15C26.5625 15 25 16.7188 25 18.75V41.25C25 43.4375 26.5625 45 28.75 45C30.7812 45 32.5 43.4375 32.5 41.25V18.75C32.5 16.7188 30.7812 15 28.75 15Z" fill="#702386"/>
</svg>
