<svg width="199" height="40" viewBox="0 0 199 40" fill="none" xmlns="http://www.w3.org/2000/svg">
<g clip-path="url(#clip0_813_2875)">
<path d="M25.0532 28.1627C25.0081 27.9616 24.8302 27.8203 24.6242 27.8166C17.643 27.7277 13.5717 24.959 8.58523 19.9994C13.5729 15.041 17.7368 12.2724 24.7205 12.1822C24.9277 12.1797 25.1068 12.036 25.1494 11.8337L27.5671 0.534965C27.6268 0.258347 27.4136 -0.00364845 27.1308 7.29597e-06C16.9581 0.138926 7.40686 4.10907 0.131913 11.2244C-0.0435628 11.3962 -0.0435628 11.6789 0.129476 11.8532L8.27692 20.0006L0.130695 28.1468C-0.0423442 28.3199 -0.0423442 28.6038 0.133132 28.7756C7.40686 35.8909 16.9557 39.8599 27.1272 40C27.4111 40.0037 27.6244 39.7392 27.5622 39.4614L25.0544 28.1627H25.0532Z" fill="white"/>
<path d="M57.9322 25.9851C57.8298 25.8815 57.6641 25.8803 57.5569 25.9778C55.495 27.8605 53.5514 29.0145 50.511 29.0145C45.7195 29.0145 42.1125 25.1369 42.1125 20.003V19.9299C42.1125 17.5001 42.9595 15.2433 44.4924 13.5738C46.051 11.8873 48.1921 10.9538 50.511 10.9538C52.9823 10.9538 55.1063 11.8556 57.3607 13.8663C57.4728 13.9662 57.6446 13.9613 57.7433 13.848C58.2429 13.274 59.6553 11.6509 60.1451 11.0879C60.2414 10.9782 60.2317 10.8137 60.1256 10.715C58.1247 8.85545 55.4 7.03488 50.5488 7.03488C43.1751 7.03488 37.6172 12.6111 37.6172 20.003V20.0701C37.6172 23.5796 38.9052 26.8247 41.2486 29.2228C43.6163 31.6332 46.8553 32.9651 50.3648 32.9651C54.4544 32.9651 57.357 31.7478 60.3023 28.7732C60.4071 28.6672 60.4084 28.4929 60.3036 28.3869L57.9322 25.9839V25.9851Z" fill="white"/>
<path d="M74.6246 7.46991H70.8897C70.7403 7.46991 70.6191 7.59103 70.6191 7.74044V32.2656C70.6191 32.4151 70.7403 32.5362 70.8897 32.5362H74.6246C74.774 32.5362 74.8951 32.4151 74.8951 32.2656V7.74044C74.8951 7.59103 74.774 7.46991 74.6246 7.46991Z" fill="white"/>
<path d="M96.6984 7.46991H87.1045C86.9546 7.46991 86.834 7.59055 86.834 7.74044V32.2656C86.834 32.4155 86.9558 32.5362 87.1045 32.5362H90.8382C90.9881 32.5362 91.1088 32.4155 91.1088 32.2656V24.4265H96.1939C102.273 24.4265 106.206 21.0766 106.206 15.8928V15.8196C106.206 10.7467 102.476 7.46991 96.6972 7.46991H96.6984ZM101.858 16.0036C101.858 18.7394 99.6376 20.5806 96.3365 20.5806H91.11V11.3474H96.3365C99.846 11.3474 101.858 13.0218 101.858 15.9305V16.0036Z" fill="white"/>
<path d="M132.409 7.74044V17.9534H120.225V7.74044C120.225 7.59055 120.105 7.46991 119.955 7.46991H116.214C116.064 7.46991 115.943 7.59055 115.943 7.74044V32.2656C115.943 32.4155 116.065 32.5362 116.214 32.5362H119.955C120.105 32.5362 120.225 32.4155 120.225 32.2656V21.9052H132.409V32.2656C132.409 32.4155 132.531 32.5362 132.679 32.5362H136.419C136.569 32.5362 136.69 32.4155 136.69 32.2656V7.74044C136.69 7.59055 136.569 7.46991 136.419 7.46991H132.679C132.53 7.46991 132.409 7.59055 132.409 7.74044Z" fill="white"/>
<path d="M152.648 28.7269V21.8005H165.027C165.177 21.8005 165.298 21.6798 165.298 21.5299V18.2617C165.298 18.1118 165.177 17.9912 165.027 17.9912H152.648V11.2804H166.647C166.797 11.2804 166.917 11.1598 166.917 11.0099V7.74166C166.917 7.59177 166.797 7.47113 166.647 7.47113H148.644C148.494 7.47113 148.373 7.59177 148.373 7.74166V32.2669C148.373 32.4168 148.495 32.5374 148.644 32.5374H166.831C166.981 32.5374 167.101 32.4168 167.101 32.2669V28.9986C167.101 28.8487 166.981 28.7281 166.831 28.7281H152.648V28.7269Z" fill="white"/>
<path d="M191.983 23.0215L192.088 22.991C195.909 21.887 198.013 19.2 198.013 15.4273V15.3541C198.013 13.2192 197.296 11.3548 195.946 9.96801C194.271 8.33632 191.774 7.47113 188.719 7.47113H177.825C177.675 7.47113 177.555 7.59177 177.555 7.74166V32.2669C177.555 32.4168 177.677 32.5374 177.825 32.5374H181.565C181.715 32.5374 181.836 32.4168 181.836 32.2669V23.7465H187.498L187.523 23.777L193.638 32.457C193.673 32.5069 193.731 32.5374 193.794 32.5374H198.299C198.495 32.5374 198.609 32.3156 198.496 32.1548L191.984 23.0227L191.983 23.0215ZM181.836 19.9726V11.3474H188.364C191.732 11.3474 193.664 12.8999 193.664 15.6052V15.6783C193.664 18.2861 191.596 19.9726 188.394 19.9726H181.836Z" fill="white"/>
</g>
<defs>
<clipPath id="clip0_813_2875">
<rect width="198.541" height="40" fill="white"/>
</clipPath>
</defs>
</svg>
