<svg width="28" height="40" viewBox="0 0 28 40" fill="none" xmlns="http://www.w3.org/2000/svg">
<g clip-path="url(#clip0_813_2107)">
<path d="M8.64301 20.153L0.34122 11.8538C0.16751 11.6801 0.16751 11.3975 0.34122 11.2263C7.6189 4.10942 17.1678 0.137419 27.3415 6.35665e-06C27.6241 -0.00517902 27.8367 0.259275 27.7771 0.5341L25.3607 11.833C25.3166 12.0353 25.1377 12.1779 24.9303 12.1831C17.873 12.2738 13.6962 15.0972 8.64042 20.153" fill="white"/>
<path d="M27.3363 40C17.1652 39.86 7.6163 35.8906 0.341211 28.7763C0.164909 28.6051 0.164909 28.3199 0.341211 28.1488L8.64041 19.8496C13.6987 24.908 17.7796 27.7288 24.8343 27.8196C25.0392 27.8221 25.2181 27.9647 25.2621 28.1644L27.7693 39.4633C27.8315 39.7407 27.6189 40.0052 27.3337 40.0026" fill="white"/>
</g>
<defs>
<clipPath id="clip0_813_2107">
<rect width="27.5758" height="40" fill="white" transform="translate(0.211914)"/>
</clipPath>
</defs>
</svg>
