<svg width="90" height="81" viewBox="0 0 90 81" fill="none" xmlns="http://www.w3.org/2000/svg">
<path d="M68.75 35.3125L87.5 42.8125C89.0625 43.4375 90 44.8438 90 46.25C90 56.25 85.9375 72.6562 68.9062 79.8438C67.9688 80.1562 66.875 80.1562 65.9375 79.8438C48.9062 72.6562 45 56.25 45 46.25C45 44.8438 45.9375 43.4375 47.3438 42.8125L66.0938 35.3125C66.875 35 67.9688 35 68.75 35.3125ZM67.5 72.1875C78.125 67.0312 81.7188 56.7188 82.3438 48.75L67.5 42.8125V72.1875Z" fill="#574394"/>
<path opacity="0.4" d="M7.5 0H52.5C56.5625 0 60 3.4375 60 7.5V32.3438L53.2812 35H47.5H42.5C41.0938 35 40 36.25 40 37.5V42.5V46.4062V47.5C40 47.6562 40 47.8125 40 47.9688C40.3125 57.0312 43.75 70.625 55.3125 79.5312C54.5312 79.8438 53.4375 80 52.5 80H37.5V67.5C37.5 63.4375 34.0625 60 30 60C25.7812 60 22.5 63.4375 22.5 67.5V80H7.5C3.28125 80 0 76.7188 0 72.5V7.5C0 3.4375 3.28125 0 7.5 0ZM10 37.5V42.5C10 43.9062 11.0938 45 12.5 45H17.5C18.75 45 20 43.9062 20 42.5V37.5C20 36.25 18.75 35 17.5 35H12.5C11.0938 35 10 36.25 10 37.5ZM27.5 35C26.0938 35 25 36.25 25 37.5V42.5C25 43.9062 26.0938 45 27.5 45H32.5C33.75 45 35 43.9062 35 42.5V37.5C35 36.25 33.75 35 32.5 35H27.5ZM12.5 15C11.0938 15 10 16.25 10 17.5V22.5C10 23.9062 11.0938 25 12.5 25H17.5C18.75 25 20 23.9062 20 22.5V17.5C20 16.25 18.75 15 17.5 15H12.5ZM25 17.5V22.5C25 23.9062 26.0938 25 27.5 25H32.5C33.75 25 35 23.9062 35 22.5V17.5C35 16.25 33.75 15 32.5 15H27.5C26.0938 15 25 16.25 25 17.5ZM42.5 15C41.0938 15 40 16.25 40 17.5V22.5C40 23.9062 41.0938 25 42.5 25H47.5C48.75 25 50 23.9062 50 22.5V17.5C50 16.25 48.75 15 47.5 15H42.5Z" fill="#574394"/>
</svg>
