<svg width="82" height="82" viewBox="0 0 82 82" fill="none" xmlns="http://www.w3.org/2000/svg">
<path d="M19.9062 31.1562C21.4688 30.8438 23.1875 31.3125 24.4375 32.5625L49.4375 57.5625C50.6875 58.6562 51.1562 60.5312 50.8438 62.0938C50.375 63.8125 49.2812 65.2188 47.7188 65.6875L41.4688 68.0312L13.9688 40.5312L16.3125 34.2812C16.7812 32.7188 18.1875 31.625 19.9062 31.1562ZM11.9375 45.6875L36.3125 70.0625L26.9375 73.5L8.5 55.0625L11.9375 45.6875ZM21.7812 75.5312L7.71875 80.6875C5.84375 81.4688 3.8125 81 2.40625 79.5938C1 78.1875 0.53125 76.1562 1.3125 74.2812L6.46875 60.2188L21.7812 75.5312Z" fill="#574394"/>
<path opacity="0.4" d="M6 6C6 3.34375 8.1875 1 11 1C13.6562 1 16 3.34375 16 6C16 8.8125 13.6562 11 11 11C8.1875 11 6 8.8125 6 6ZM71 26C71 23.3438 73.1875 21 76 21C78.6562 21 81 23.3438 81 26C81 28.8125 78.6562 31 76 31C73.1875 31 71 28.8125 71 26ZM76 66C78.6562 66 81 68.3438 81 71C81 73.8125 78.6562 76 76 76C73.1875 76 71 73.8125 71 71C71 68.3438 73.1875 66 76 66ZM27.0938 24.9062C25.5312 23.5 25.5312 21.1562 27.0938 19.75L28.3438 18.3438C31 15.8438 32.5625 12.4062 33.0312 8.65625L33.5 4.4375C33.6562 2.40625 35.5312 0.84375 37.5625 1.15625C39.5938 1.3125 41.1562 3.1875 40.8438 5.21875L40.375 9.4375C39.9062 14.9062 37.4062 19.9062 33.6562 23.6562L32.4062 24.9062C30.8438 26.4688 28.5 26.4688 27.0938 24.9062ZM57.0938 49.5938L58.3438 48.3438C62.0938 44.5938 67.0938 42.0938 72.4062 41.625L76.7812 41.1562C78.8125 40.8438 80.6875 42.4062 80.8438 44.4375C81.1562 46.4688 79.5938 48.3438 77.5625 48.5L73.3438 48.9688C69.5938 49.4375 66.1562 51 63.6562 53.6562L62.4062 54.9062C60.8438 56.4688 58.5 56.4688 57.0938 54.9062C55.5312 53.5 55.5312 51.1562 57.0938 49.75V49.5938ZM80.0625 2.40625C81.3125 3.96875 81.1562 6.3125 79.5938 7.71875L78.0312 8.96875C75.6875 11 72.7188 11.9375 69.75 11.9375C67.0938 11.7812 64.9062 13.8125 64.75 16.4688L64.5938 21.1562C64.125 27.7188 58.5 32.875 51.9375 32.7188C50.6875 32.7188 49.5938 33.0312 48.6562 33.8125L47.0938 35.2188C45.5312 36.4688 43.1875 36.3125 41.7812 34.75C40.5312 33.1875 40.6875 30.8438 42.25 29.4375L43.8125 28.1875C46.1562 26.1562 49.125 25.2188 52.0938 25.2188C54.75 25.375 56.9375 23.3438 57.0938 20.6875L57.4062 16C57.7188 9.4375 63.3438 4.28125 69.9062 4.4375C71.1562 4.4375 72.25 4.125 73.1875 3.34375L74.75 1.9375C76.3125 0.6875 78.6562 0.84375 80.0625 2.40625ZM13.9688 40.5312L41.4688 68.0312L36.3125 70.0625L11.9375 45.6875L13.9688 40.5312ZM8.5 55.0625L26.9375 73.5L21.7812 75.5312L6.46875 60.2188L8.5 55.0625Z" fill="#574394"/>
</svg>
