<svg width="90" height="80" viewBox="0 0 90 80" fill="none" xmlns="http://www.w3.org/2000/svg">
<path d="M29.0625 7.5H28.75C25.1562 7.5 22.5 10.3125 22.5 13.75C22.5 17.3438 25.1562 20 28.75 20H40.1562L34.6875 10.7812C33.4375 8.75 31.4062 7.5 29.0625 7.5ZM37.9688 27.5H28.75C21.0938 27.5 15 21.4062 15 13.75C15 6.25 21.0938 0 28.75 0H29.0625C34.0625 0 38.5938 2.65625 41.0938 7.03125L45 13.4375L48.75 7.03125C51.25 2.65625 55.7812 0 60.7812 0H61.25C68.75 0 75 6.25 75 13.75C75 21.4062 68.75 27.5 61.25 27.5H51.875L60.3125 37.6562C61.7188 39.2188 61.4062 41.5625 59.8438 42.9688C58.2812 44.2188 55.9375 44.0625 54.5312 42.5L45 30.9375L35.3125 42.5C33.9062 44.0625 31.5625 44.2188 30 42.9688C28.4375 41.5625 28.2812 39.2188 29.5312 37.6562L37.9688 27.5ZM61.25 20C64.6875 20 67.5 17.3438 67.5 13.75C67.5 10.3125 64.6875 7.5 61.25 7.5H60.7812C58.4375 7.5 56.4062 8.75 55.1562 10.7812L49.6875 20H50H61.25ZM90 65H0V50H90V65Z" fill="#574394"/>
<path opacity="0.4" d="M73.4375 20H80C85.4688 20 90 24.5312 90 30V50H0V30C0 24.5312 4.375 20 10 20H16.4062C18.75 24.5312 23.2812 27.5 28.75 27.5H37.9688L29.5312 37.6562C28.2812 39.2188 28.4375 41.5625 30 42.9688C31.5625 44.2188 33.9062 44.0625 35.3125 42.5L45 30.9375L54.5312 42.5C55.9375 44.0625 58.2812 44.2188 59.8438 42.9688C61.4062 41.5625 61.7188 39.2188 60.3125 37.6562L51.875 27.5H61.25C66.5625 27.5 71.0938 24.5312 73.4375 20ZM0 65H90V70C90 75.625 85.4688 80 80 80H10C4.375 80 0 75.625 0 70V65Z" fill="#574394"/>
</svg>
