<svg width="90" height="80" viewBox="0 0 90 80" fill="none" xmlns="http://www.w3.org/2000/svg">
<path d="M21.25 15H68.75C74.8438 15 80 20.1562 80 26.25V68.75C80 75 74.8438 80 68.75 80H21.25C15 80 10 75 10 68.75V26.25C10 20.1562 15 15 21.25 15ZM27.5 60C26.0938 60 25 61.25 25 62.5C25 63.9062 26.0938 65 27.5 65H32.5C33.75 65 35 63.9062 35 62.5C35 61.25 33.75 60 32.5 60H27.5ZM42.5 60C41.0938 60 40 61.25 40 62.5C40 63.9062 41.0938 65 42.5 65H47.5C48.75 65 50 63.9062 50 62.5C50 61.25 48.75 60 47.5 60H42.5ZM57.5 60C56.0938 60 55 61.25 55 62.5C55 63.9062 56.0938 65 57.5 65H62.5C63.75 65 65 63.9062 65 62.5C65 61.25 63.75 60 62.5 60H57.5ZM23.75 40C23.75 42.3438 24.8438 44.375 26.875 45.4688C28.75 46.5625 31.0938 46.5625 33.125 45.4688C35 44.375 36.25 42.3438 36.25 40C36.25 37.8125 35 35.7812 33.125 34.6875C31.0938 33.5938 28.75 33.5938 26.875 34.6875C24.8438 35.7812 23.75 37.8125 23.75 40ZM60 33.75C57.6562 33.75 55.625 35 54.5312 36.875C53.4375 38.9062 53.4375 41.25 54.5312 43.125C55.625 45.1562 57.6562 46.25 60 46.25C62.1875 46.25 64.2188 45.1562 65.3125 43.125C66.4062 41.25 66.4062 38.9062 65.3125 36.875C64.2188 35 62.1875 33.75 60 33.75Z" fill="#574394"/>
<path opacity="0.4" d="M45 0C47.6562 0 50 2.34375 50 5V15H40V5C40 2.34375 42.1875 0 45 0ZM25 62.5C25 61.25 26.0938 60 27.5 60H32.5C33.75 60 35 61.25 35 62.5C35 63.9062 33.75 65 32.5 65H27.5C26.0938 65 25 63.9062 25 62.5ZM40 62.5C40 61.25 41.0938 60 42.5 60H47.5C48.75 60 50 61.25 50 62.5C50 63.9062 48.75 65 47.5 65H42.5C41.0938 65 40 63.9062 40 62.5ZM55 62.5C55 61.25 56.0938 60 57.5 60H62.5C63.75 60 65 61.25 65 62.5C65 63.9062 63.75 65 62.5 65H57.5C56.0938 65 55 63.9062 55 62.5ZM7.5 35H10V65H7.5C3.28125 65 0 61.7188 0 57.5V42.5C0 38.4375 3.28125 35 7.5 35ZM82.5 35C86.5625 35 90 38.4375 90 42.5V57.5C90 61.7188 86.5625 65 82.5 65H80V35H82.5Z" fill="#574394"/>
</svg>
