<svg width="90" height="81" viewBox="0 0 90 81" fill="none" xmlns="http://www.w3.org/2000/svg">
<path d="M50 21V11H70C75.4688 11 80 15.5312 80 21V71H85C87.6562 71 90 73.3438 90 76C90 78.8125 87.6562 81 85 81H75C72.1875 81 70 78.8125 70 76V21H50ZM5 71H10V81H5C2.1875 81 0 78.8125 0 76C0 73.3438 2.1875 71 5 71ZM36.25 46C34.0625 46 32.5 43.8125 32.5 41C32.5 38.3438 34.0625 36 36.25 36C38.2812 36 40 38.3438 40 41C40 43.8125 38.2812 46 36.25 46Z" fill="white"/>
<path opacity="0.4" d="M47.9688 2.09375C49.2188 3.03125 50 4.59375 50 6V76V81H45H15H10V76V15.5312C10 12.0938 12.3438 9.125 15.625 8.1875L43.75 1.15625C45.1562 0.84375 46.7188 1.15625 47.9688 2.09375ZM36.25 46C38.2812 46 40 43.8125 40 41C40 38.3438 38.2812 36 36.25 36C34.0625 36 32.5 38.3438 32.5 41C32.5 43.8125 34.0625 46 36.25 46Z" fill="white"/>
</svg>
