<svg width="100" height="81" viewBox="0 0 100 81" fill="none" xmlns="http://www.w3.org/2000/svg">
<path d="M98.5938 52.8125C99.0625 53.9062 98.5938 55.1562 97.5 55.625L97.0312 55.9375C95.625 56.7188 95 58.4375 95 60.1562C95 61.7188 95.625 63.4375 97.0312 64.2188L97.5 64.5312C98.5938 65 99.0625 66.25 98.5938 67.3438C98.2812 68.125 97.8125 68.9062 97.5 69.6875L97.0312 70.4688C96.5625 71.25 96.0938 71.875 95.4688 72.6562C94.8438 73.5938 93.4375 73.75 92.5 73.125L92.0312 72.8125C90.625 72.0312 88.9062 72.1875 87.5 73.125C85.9375 73.9062 85 75.3125 85 77.0312V77.5C85 78.5938 84.2188 79.6875 82.9688 79.8438C82.0312 80 80.9375 80.1562 80 80.1562C78.9062 80.1562 77.8125 80 76.875 79.8438C75.625 79.6875 75 78.5938 75 77.5V77.0312C75 75.3125 73.9062 73.9062 72.3438 73.125C70.9375 72.1875 69.2188 72.0312 67.8125 72.8125L67.3438 73.125C66.4062 73.75 65.1562 73.5938 64.375 72.6562C63.75 71.875 63.2812 71.25 62.8125 70.4688L62.3438 69.6875C62.0312 68.9062 61.5625 68.125 61.25 67.3438C60.7812 66.25 61.4062 65 62.3438 64.5312L62.8125 64.2188C64.2188 63.4375 65 61.7188 65 60.1562C65 58.4375 64.2188 56.875 62.8125 55.9375L62.3438 55.7812C61.4062 55.1562 60.7812 53.9062 61.25 52.9688C61.5625 52.0312 62.0312 51.25 62.5 50.4688L62.8125 49.8438C63.2812 49.0625 63.75 48.2812 64.375 47.5C65.1562 46.7188 66.4062 46.5625 67.3438 47.0312L67.8125 47.3438C69.2188 48.125 70.9375 47.9688 72.5 47.1875C73.9062 46.25 75 44.8438 75 43.2812V42.6562C75 41.5625 75.7812 40.4688 76.875 40.3125C77.8125 40.1562 78.9062 40.1562 80 40.1562C80.9375 40.1562 82.0312 40.1562 83.125 40.3125C84.2188 40.4688 85 41.5625 85 42.6562V43.2812C85 44.8438 86.0938 46.25 87.5 47.1875C88.9062 47.9688 90.625 48.125 92.0312 47.3438L92.5 47.0312C93.5938 46.5625 94.8438 46.7188 95.4688 47.5C96.0938 48.2812 96.5625 49.0625 97.0312 49.8438L97.5 50.4688C97.9688 51.25 98.2812 52.0312 98.5938 52.9688V52.8125ZM80 66.25C82.1875 66.25 84.2188 65.1562 85.3125 63.125C86.4062 61.25 86.4062 58.9062 85.3125 56.875C84.2188 55 82.1875 53.75 80 53.75C77.6562 53.75 75.625 55 74.5312 56.875C73.4375 58.9062 73.4375 61.25 74.5312 63.125C75.625 65.1562 77.6562 66.25 80 66.25Z" fill="#574394"/>
<path opacity="0.4" d="M22.5 25C17.9688 25 13.9062 22.6562 11.5625 18.75C9.375 15 9.375 10.1562 11.5625 6.25C13.9062 2.5 17.9688 0 22.5 0C26.875 0 30.9375 2.5 33.2812 6.25C35.4688 10.1562 35.4688 15 33.2812 18.75C30.9375 22.6562 26.875 25 22.5 25ZM80 25C75.4688 25 71.4062 22.6562 69.0625 18.75C66.875 15 66.875 10.1562 69.0625 6.25C71.4062 2.5 75.4688 0 80 0C84.375 0 88.4375 2.5 90.7812 6.25C92.9688 10.1562 92.9688 15 90.7812 18.75C88.4375 22.6562 84.375 25 80 25ZM0 46.7188C0 37.5 7.34375 30 16.5625 30H23.2812C25.7812 30 28.125 30.625 30.3125 31.5625C30 32.6562 30 33.9062 30 35C30 41.0938 32.5 46.4062 36.7188 50H36.5625H3.28125C1.40625 50 0 48.5938 0 46.7188ZM50 50C41.7188 50 35 43.2812 35 35C35 26.7188 41.7188 20 50 20C58.2812 20 65 26.7188 65 35C65 38.125 64.0625 41.0938 62.3438 43.4375C61.875 43.75 61.4062 44.2188 60.9375 44.6875C60.4688 45.3125 60.1562 45.7812 59.6875 46.4062C57.0312 48.75 53.75 50 50 50ZM60.1562 59.5312L60.625 59.6875C60.625 59.8438 60.625 60 60.625 60.1562C60.625 60.1562 60.625 60.3125 60.625 60.4688L60.1562 60.625C57.5 62.1875 55.9375 65.625 57.1875 68.9062C57.6562 69.8438 58.125 70.9375 58.5938 71.875L59.0625 72.6562C59.6875 73.5938 60.3125 74.5312 60.9375 75.4688C63.125 78.125 66.875 78.4375 69.5312 76.875L70 76.7188C70.1562 76.875 70.3125 76.875 70.625 77.0312V77.5C70.625 78.4375 70.7812 79.2188 71.0938 80H24.0625C21.7188 80 20 78.125 20 75.9375C20 64.375 29.2188 55 40.7812 55H56.875C57.3438 56.875 58.5938 58.5938 60.1562 59.5312ZM83.2812 30C92.1875 30 99.5312 37.1875 99.8438 46.0938C99.5312 45.625 99.2188 45.1562 98.9062 44.6875C96.7188 42.0312 92.9688 41.7188 90.3125 43.2812L90 43.4375C89.6875 43.2812 89.5312 43.2812 89.375 43.125V42.6562C89.375 39.6875 87.1875 36.5625 83.75 35.9375C82.5 35.7812 81.25 35.625 80 35.625C78.5938 35.625 77.3438 35.7812 76.0938 35.9375C72.6562 36.5625 70.625 39.6875 70.625 42.6562V43.125C70.3125 43.2812 70.1562 43.2812 70 43.4375L69.5312 43.2812C69.2188 42.9688 68.75 42.8125 68.4375 42.6562C69.375 40.3125 70 37.8125 70 35C70 33.9062 69.8438 32.6562 69.6875 31.5625C71.7188 30.625 74.0625 30 76.5625 30H83.2812Z" fill="#574394"/>
</svg>
