<svg width="80" height="80" viewBox="0 0 80 80" fill="none" xmlns="http://www.w3.org/2000/svg">
<path d="M25 0C28.5938 0 31.875 2.03125 33.5938 5H42.5C46.5625 5 50 8.4375 50 12.5V15H42.5C35.4688 15 30 20.625 30 27.5V70H7.5C3.28125 70 0 66.7188 0 62.5V12.5C0 8.4375 3.28125 5 7.5 5H16.25C17.9688 2.03125 21.25 0 25 0ZM25 6.25C22.8125 6.25 21.25 7.96875 21.25 10C21.25 12.1875 22.8125 13.75 25 13.75C27.0312 13.75 28.75 12.1875 28.75 10C28.75 7.96875 27.0312 6.25 25 6.25Z" fill="#574394"/>
<path opacity="0.4" d="M35 27.5C35 23.4375 38.2812 20 42.5 20H61.875C63.75 20 65.7812 20.9375 67.1875 22.3438L77.6562 32.8125C79.0625 34.2188 80 36.25 80 38.125V72.5C80 76.7188 76.5625 80 72.5 80H42.5C38.2812 80 35 76.7188 35 72.5V27.5Z" fill="#574394"/>
</svg>
