<svg width="80" height="80" viewBox="0 0 80 80" fill="none" xmlns="http://www.w3.org/2000/svg">
<path d="M5 11.25C5 7.8125 7.65625 5 11.25 5H18.75C22.1875 5 25 7.8125 25 11.25V18.75C25 22.3438 22.1875 25 18.75 25H11.25C7.65625 25 5 22.3438 5 18.75V11.25ZM5 61.25C5 57.8125 7.65625 55 11.25 55H18.75C22.1875 55 25 57.8125 25 61.25V68.75C25 72.3438 22.1875 75 18.75 75H11.25C7.65625 75 5 72.3438 5 68.75V61.25ZM50 36.25V43.75C50 47.3438 47.1875 50 43.75 50H36.25C32.6562 50 30 47.3438 30 43.75V36.25C30 32.8125 32.6562 30 36.25 30H43.75C47.1875 30 50 32.8125 50 36.25ZM55 11.25C55 7.8125 57.6562 5 61.25 5H68.75C72.1875 5 75 7.8125 75 11.25V18.75C75 22.3438 72.1875 25 68.75 25H61.25C57.6562 25 55 22.3438 55 18.75V11.25ZM75 61.25V68.75C75 72.3438 72.1875 75 68.75 75H61.25C57.6562 75 55 72.3438 55 68.75V61.25C55 57.8125 57.6562 55 61.25 55H68.75C72.1875 55 75 57.8125 75 61.25Z" fill="#574394"/>
<path opacity="0.4" d="M36.25 5H43.75C47.1875 5 50 7.8125 50 11.25V18.75C50 22.3438 47.1875 25 43.75 25H36.25C32.6562 25 30 22.3438 30 18.75V11.25C30 7.8125 32.6562 5 36.25 5ZM11.25 30H18.75C22.1875 30 25 32.8125 25 36.25V43.75C25 47.3438 22.1875 50 18.75 50H11.25C7.65625 50 5 47.3438 5 43.75V36.25C5 32.8125 7.65625 30 11.25 30ZM30 61.25C30 57.8125 32.6562 55 36.25 55H43.75C47.1875 55 50 57.8125 50 61.25V68.75C50 72.3438 47.1875 75 43.75 75H36.25C32.6562 75 30 72.3438 30 68.75V61.25ZM61.25 30H68.75C72.1875 30 75 32.8125 75 36.25V43.75C75 47.3438 72.1875 50 68.75 50H61.25C57.6562 50 55 47.3438 55 43.75V36.25C55 32.8125 57.6562 30 61.25 30Z" fill="#574394"/>
</svg>
