<svg width="90" height="80" viewBox="0 0 90 80" fill="none" xmlns="http://www.w3.org/2000/svg">
<path d="M27.5 40C23.9062 40 20.625 38.125 18.75 35C17.0312 32.0312 17.0312 28.125 18.75 25C20.625 22.0312 23.9062 20 27.5 20C30.9375 20 34.2188 22.0312 36.0938 25C37.8125 28.125 37.8125 32.0312 36.0938 35C34.2188 38.125 30.9375 40 27.5 40ZM22.5 45H32.5C39.375 45 45 50.625 45 57.5C45 58.9062 43.75 60 42.5 60H12.5C11.0938 60 10 58.9062 10 57.5C10 50.625 15.4688 45 22.5 45Z" fill="#574394"/>
<path opacity="0.4" d="M10 5H80C85.4688 5 90 9.53125 90 15V65C90 70.625 85.4688 75 80 75H10C4.375 75 0 70.625 0 65V15C0 9.53125 4.375 5 10 5ZM22.5 45C15.4688 45 10 50.625 10 57.5C10 58.9062 11.0938 60 12.5 60H42.5C43.75 60 45 58.9062 45 57.5C45 50.625 39.375 45 32.5 45H22.5ZM17.5 30C17.5 33.5938 19.375 36.875 22.5 38.75C25.4688 40.4688 29.375 40.4688 32.5 38.75C35.4688 36.875 37.5 33.5938 37.5 30C37.5 26.5625 35.4688 23.2812 32.5 21.4062C29.375 19.6875 25.4688 19.6875 22.5 21.4062C19.375 23.2812 17.5 26.5625 17.5 30ZM57.5 25C56.0938 25 55 26.25 55 27.5C55 28.9062 56.0938 30 57.5 30H77.5C78.75 30 80 28.9062 80 27.5C80 26.25 78.75 25 77.5 25H57.5ZM57.5 35C56.0938 35 55 36.25 55 37.5C55 38.9062 56.0938 40 57.5 40H77.5C78.75 40 80 38.9062 80 37.5C80 36.25 78.75 35 77.5 35H57.5ZM57.5 45C56.0938 45 55 46.25 55 47.5C55 48.9062 56.0938 50 57.5 50H77.5C78.75 50 80 48.9062 80 47.5C80 46.25 78.75 45 77.5 45H57.5Z" fill="#574394"/>
</svg>
