<svg width="81" height="81" viewBox="0 0 81 81" fill="none" xmlns="http://www.w3.org/2000/svg">
<path d="M81 25H61C58.1875 25 56 22.8125 56 20V0L81 25ZM18.0312 25.3125L20.375 26.25C20.6875 26.4062 21.1562 26.4062 21.4688 26.25L23.9688 25.3125C25.5312 24.6875 27.25 25.1562 28.3438 26.5625L29.9062 28.5938C30.0625 28.9062 30.375 29.0625 30.6875 29.0625L33.3438 29.375C35.0625 29.6875 36.3125 30.9375 36.625 32.6562L36.9375 35.3125C36.9375 35.625 37.0938 35.9375 37.4062 36.0938L39.5938 37.6562C40.8438 38.75 41.3125 40.625 40.6875 42.1875L39.75 44.5312C39.5938 44.8438 39.5938 45.3125 39.75 45.4688L40.6875 47.9688C41.3125 49.5312 40.8438 51.4062 39.4375 52.3438L37.4062 54.0625C37.0938 54.2188 36.9375 54.5312 36.9375 54.8438L36.625 57.5C36.3125 59.2188 35.0625 60.4688 33.3438 60.7812L31 61.0938V77.5C31 78.4375 30.375 79.375 29.5938 79.8438C28.8125 80.1562 27.875 80.1562 27.0938 79.6875L21 75.625L14.75 79.6875C14.125 80.1562 13.0312 80.1562 12.25 79.8438C11.4688 79.375 11 78.4375 11 77.5V61.0938L8.5 60.7812C6.78125 60.4688 5.53125 59.2188 5.21875 57.5L4.90625 54.8438C4.90625 54.5312 4.75 54.2188 4.4375 54.0625L2.40625 52.3438C1 51.4062 0.53125 49.5312 1.15625 47.9688L2.25 45.625C2.25 45.3125 2.25 44.8438 2.25 44.5312L1.15625 42.1875C0.53125 40.625 1 38.75 2.40625 37.8125L4.4375 36.0938C4.75 35.9375 4.90625 35.625 4.90625 35.3125L5.375 32.6562C5.53125 30.9375 6.78125 29.6875 8.5 29.375L11.1562 29.0625C11.4688 29.0625 11.7812 28.9062 11.9375 28.5938L13.6562 26.5625C14.5938 25.1562 16.4688 24.6875 18.0312 25.3125ZM11 45C11 48.5938 12.875 51.875 16 53.75C18.9688 55.4688 22.875 55.4688 26 53.75C28.9688 51.875 31 48.5938 31 45C31 41.5625 28.9688 38.2812 26 36.4062C22.875 34.6875 18.9688 34.6875 16 36.4062C12.875 38.2812 11 41.5625 11 45Z" fill="#574394"/>
<path opacity="0.4" d="M31 0H56V20C56 22.8125 58.1875 25 61 25H81V70C81 75.625 76.4688 80 71 80H30.8438C30.375 80 29.75 80 29.2812 80C29.4375 79.8438 29.4375 79.8438 29.5938 79.8438C30.375 79.375 31 78.4375 31 77.5V61.0938L33.3438 60.7812C35.0625 60.4688 36.3125 59.2188 36.625 57.5L36.9375 54.8438C36.9375 54.5312 37.0938 54.2188 37.4062 54.0625L39.5938 52.3438C40.8438 51.4062 41.3125 49.5312 40.6875 47.9688L39.75 45.625C39.5938 45.3125 39.5938 44.8438 39.75 44.5312L40.6875 42.0312C41.3125 40.4688 40.8438 38.75 39.4375 37.6562L37.4062 36.0938C37.0938 35.9375 36.9375 35.625 36.9375 35.3125L36.625 32.6562C36.3125 30.9375 35.0625 29.6875 33.3438 29.375L30.6875 29.0625C30.375 29.0625 30.0625 28.9062 29.9062 28.5938L28.1875 26.4062C27.25 25.1562 25.375 24.6875 23.8125 25.3125L21.4688 26.25C21.3125 26.4062 21.1562 26.4062 21 26.4062V10C21 4.53125 25.375 0 31 0Z" fill="#574394"/>
</svg>
