<svg width="101" height="80" viewBox="0 0 101 80" fill="none" xmlns="http://www.w3.org/2000/svg">
<path d="M77.5 80C69.375 80 62.0312 75.7812 57.9688 68.75C53.9062 61.875 53.9062 53.2812 57.9688 46.25C62.0312 39.375 69.375 35 77.5 35C85.4688 35 92.8125 39.375 96.875 46.25C100.938 53.2812 100.938 61.875 96.875 68.75C92.8125 75.7812 85.4688 80 77.5 80ZM77.5 75C82.1875 75 86.4062 73.2812 89.5312 70.1562C88.5938 67.1875 85.7812 65 82.5 65H72.3438C69.0625 65 66.25 67.1875 65.3125 70.1562C68.4375 73.2812 72.6562 75 77.5 75ZM77.5 45C74.6875 45 72.3438 46.5625 70.9375 48.75C69.5312 51.0938 69.5312 54.0625 70.9375 56.25C72.3438 58.5938 74.6875 60 77.5 60C80.1562 60 82.5 58.5938 83.9062 56.25C85.3125 54.0625 85.3125 51.0938 83.9062 48.75C82.5 46.5625 80.1562 45 77.5 45Z" fill="#574394"/>
<path opacity="0.4" d="M61.5625 80H10C4.375 80 0 75.625 0 70V35C0 29.5312 4.375 25 10 25H70C73.5938 25 76.875 27.0312 78.5938 30.1562C78.2812 30.1562 77.8125 30 77.5 30C62.1875 30 50 42.3438 50 57.5C50 66.875 54.5312 75.1562 61.5625 80ZM72.5 16.25C72.5 18.4375 70.7812 20 68.75 20H11.25C9.0625 20 7.5 18.4375 7.5 16.25C7.5 14.2188 9.0625 12.5 11.25 12.5H68.75C70.7812 12.5 72.5 14.2188 72.5 16.25ZM65 3.75C65 5.9375 63.2812 7.5 61.25 7.5H18.75C16.5625 7.5 15 5.9375 15 3.75C15 1.71875 16.5625 0 18.75 0H61.25C63.2812 0 65 1.71875 65 3.75Z" fill="#574394"/>
</svg>
