<svg width="90" height="80" viewBox="0 0 90 80" fill="none" xmlns="http://www.w3.org/2000/svg">
<path d="M40 0H50C52.6562 0 55 2.34375 55 5V20H35V5C35 2.34375 37.1875 0 40 0ZM55 45C55 48.5938 52.9688 51.875 50 53.75C46.875 55.4688 42.9688 55.4688 40 53.75C36.875 51.875 35 48.5938 35 45C35 41.5625 36.875 38.2812 40 36.4062C42.9688 34.6875 46.875 34.6875 50 36.4062C52.9688 38.2812 55 41.5625 55 45ZM27.5 68.4375C27.5 63.75 31.0938 60 35.7812 60H54.0625C58.75 60 62.5 63.75 62.5 68.4375C62.5 69.375 61.7188 70 60.7812 70H29.0625C28.125 70 27.5 69.375 27.5 68.4375Z" fill="#574394"/>
<path opacity="0.4" d="M10 10H35V20H32.5C31.0938 20 30 21.25 30 22.5C30 23.9062 31.0938 25 32.5 25H57.5C58.75 25 60 23.9062 60 22.5C60 21.25 58.75 20 57.5 20H55V10H80C85.4688 10 90 14.5312 90 20V70C90 75.625 85.4688 80 80 80H10C4.375 80 0 75.625 0 70V20C0 14.5312 4.375 10 10 10ZM27.5 68.4375C27.5 69.375 28.125 70 29.0625 70H60.7812C61.7188 70 62.5 69.375 62.5 68.4375C62.5 63.75 58.75 60 54.0625 60H35.7812C31.0938 60 27.5 63.75 27.5 68.4375ZM45 55C48.4375 55 51.7188 53.125 53.5938 50C55.3125 47.0312 55.3125 43.125 53.5938 40C51.7188 37.0312 48.4375 35 45 35C41.4062 35 38.125 37.0312 36.25 40C34.5312 43.125 34.5312 47.0312 36.25 50C38.125 53.125 41.4062 55 45 55Z" fill="#574394"/>
</svg>
